<svg width="25" height="24" viewBox="0 0 25 24" fill="none" xmlns="http://www.w3.org/2000/svg">
<g id="Iconly/Bulk/Discovery">
<g id="Discovery">
<path id="Fill-1" opacity="0.4" d="M24.6 12C24.6 18.6276 19.2276 24 12.6 24C5.97242 24 0.600021 18.6276 0.600021 12C0.600021 5.3736 5.97242 0 12.6 0C19.2276 0 24.6 5.3736 24.6 12Z" fill="#2F3739"/>
<path id="Fill-4" d="M17.2317 8.04599L15.2877 14.19C15.2157 14.442 15.0117 14.646 14.7597 14.7192L8.63968 16.638C8.23168 16.7712 7.83568 16.374 7.96768 15.966L9.88768 9.80999C9.95968 9.55799 10.1637 9.36599 10.4157 9.28199L16.5597 7.36199C16.9797 7.22999 17.3637 7.62599 17.2317 8.04599Z" fill="#2F3739"/>
</g>
</g>
</svg>
