<svg width="40" height="37" viewBox="0 0 40 37" fill="none" xmlns="http://www.w3.org/2000/svg">
<g id="Iconly/Bold/Wallet">
<g id="Wallet">
<path id="Vector" d="M29.0311 0.0909119C35.9289 0.0909119 40 4.0601 40 10.8545H31.5378V10.9238C27.6104 10.9238 24.4267 14.0279 24.4267 17.8569C24.4267 21.686 27.6104 24.79 31.5378 24.79H40V25.414C40 32.1217 35.9289 36.0909 29.0311 36.0909H10.9689C4.07111 36.0909 0 32.1217 0 25.414V10.7678C0 4.0601 4.07111 0.0909119 10.9689 0.0909119H29.0311ZM38.5067 13.8357C39.3314 13.8357 40 14.4876 40 15.2917V20.3528C39.9904 21.153 39.3274 21.7994 38.5067 21.8088H31.6978C29.7096 21.8349 27.971 20.5077 27.52 18.6196C27.2942 17.4475 27.6112 16.238 28.3861 15.3153C29.1611 14.3926 30.3147 13.8511 31.5378 13.8357H38.5067ZM32.4978 16.1756H31.84C31.4362 16.171 31.0472 16.3242 30.76 16.601C30.4727 16.8778 30.3111 17.2552 30.3111 17.6489C30.3111 18.475 30.9928 19.1474 31.84 19.1569H32.4978C33.3422 19.1569 34.0267 18.4895 34.0267 17.6663C34.0267 16.843 33.3422 16.1756 32.4978 16.1756ZM20.7644 7.87329H9.47556C8.63807 7.87324 7.9564 8.5301 7.94667 9.34657C7.94667 10.1727 8.62831 10.845 9.47556 10.8545H20.7644C21.6088 10.8545 22.2933 10.1871 22.2933 9.3639C22.2933 8.54066 21.6088 7.87329 20.7644 7.87329Z" fill="black"/>
</g>
</g>
</svg>
