<svg width="75" height="54" viewBox="0 0 75 54" fill="none" xmlns="http://www.w3.org/2000/svg">
<g id="Iconly/Bold/3-User">
<g id="3-User">
<path id="3-Friends" d="M37.3639 35.3319C48.8012 35.3319 58.5671 37.1452 58.5671 44.401C58.5671 51.6539 48.8639 53.5332 37.3639 53.5332C25.9267 53.5332 16.1608 51.72 16.1608 44.4671C16.1608 37.2112 25.864 35.3319 37.3639 35.3319ZM55.6508 30.9628C60.0233 30.8817 64.7242 31.4821 66.4613 31.9084C70.1414 32.6319 72.5619 34.1089 73.5648 36.2554C74.4124 38.0175 74.4124 40.0619 73.5648 41.8211C72.0307 45.1503 67.085 46.2191 65.1629 46.4953C64.766 46.5553 64.4466 46.2101 64.4884 45.8108C65.4703 36.5856 57.6594 32.2116 55.6388 31.206C55.5523 31.1609 55.5344 31.0919 55.5433 31.0498C55.5493 31.0198 55.5851 30.9718 55.6508 30.9628ZM19.4192 30.964C19.4848 30.973 19.5177 31.021 19.5236 31.048C19.5326 31.0931 19.5147 31.1591 19.4311 31.2071C17.4075 32.2128 9.59662 36.5868 10.5786 45.809C10.6204 46.2113 10.304 46.5535 9.90702 46.4965C7.98489 46.2203 3.03929 45.1515 1.50516 41.8223C0.654529 40.0601 0.654529 38.0187 1.50516 36.2566C2.50801 34.1101 4.9256 32.6331 8.6057 31.9066C10.3458 31.4833 15.0436 30.8829 19.4192 30.964ZM37.3639 0.19986C45.151 0.19986 51.3949 6.47409 51.3949 14.3094C51.3949 22.1416 45.151 28.4219 37.3639 28.4219C29.5769 28.4219 23.333 22.1416 23.333 14.3094C23.333 6.47409 29.5769 0.19986 37.3639 0.19986ZM56.4119 2.55284C63.9332 2.55284 69.8399 9.67064 67.8282 17.599C66.4702 22.9366 61.5544 26.482 56.0776 26.3379C55.5284 26.3229 54.9882 26.2718 54.4658 26.1818C54.0868 26.1157 53.8958 25.6864 54.1107 25.3682C56.1999 22.2761 57.3908 18.5566 57.3908 14.5639C57.3908 10.3971 56.0895 6.51251 53.8301 3.32737C53.7585 3.2283 53.7047 3.0752 53.7764 2.96112C53.8361 2.86806 53.9465 2.82002 54.051 2.79601C54.8121 2.6399 55.5941 2.55284 56.4119 2.55284ZM18.6536 2.55254C19.4714 2.55254 20.2534 2.6396 21.0175 2.79571C21.119 2.81972 21.2324 2.87076 21.2921 2.96082C21.3607 3.0749 21.31 3.228 21.2383 3.32707C18.9789 6.51221 17.6776 10.3968 17.6776 14.5636C17.6776 18.5563 18.8685 22.2758 20.9578 25.3679C21.1727 25.6861 20.9817 26.1154 20.6026 26.1815C20.0773 26.2745 19.5401 26.3226 18.9909 26.3376C13.514 26.4817 8.59824 22.9363 7.24022 17.5987C5.22556 9.67034 11.1322 2.55254 18.6536 2.55254Z" fill="#1DA1F2"/>
</g>
</g>
</svg>
