<svg width="40" height="37" viewBox="0 0 40 37" fill="none" xmlns="http://www.w3.org/2000/svg">
<g id="Iconly/Bold/Ticket-Star">
<g id="Ticket-Star">
<path id="Vector" d="M31.712 0.0909424C36.28 0.0909424 39.998 3.77497 39.998 8.30123L40 13.6558C40 14.0482 39.842 14.4287 39.562 14.7062C39.28 14.9856 38.9 15.1421 38.5 15.1421C36.858 15.1421 35.522 16.4659 35.522 18.0929C35.522 19.7199 36.858 21.0437 38.5 21.0437C39.328 21.0437 40 21.7096 40 22.53V27.8826C40 32.4089 36.284 36.0909 31.716 36.0909H8.286C3.718 36.0909 0 32.4089 0 27.8826V22.53C0 21.7096 0.672 21.0437 1.5 21.0437C3.144 21.0437 4.48 19.7199 4.48 18.0929C4.48 16.5075 3.198 15.3145 1.5 15.3145C1.102 15.3145 0.722 15.158 0.44 14.8786C0.158 14.5991 0 14.2206 0 13.8283L0.004 8.30123C0.004 3.77497 3.72 0.0909424 8.288 0.0909424H31.712ZM20.004 10.3979C19.436 10.3979 18.928 10.711 18.674 11.2144L17.216 14.1414L13.964 14.611C13.402 14.6903 12.942 15.0708 12.764 15.6059C12.588 16.1409 12.73 16.7196 13.138 17.112L15.496 19.387L14.94 22.6033C14.844 23.1582 15.07 23.7091 15.53 24.0401C15.79 24.2244 16.092 24.3195 16.398 24.3195C16.632 24.3195 16.868 24.262 17.084 24.1491L20 22.6311L22.91 24.1451C23.414 24.4126 24.012 24.371 24.47 24.0381C24.932 23.7091 25.158 23.1582 25.062 22.6033L24.504 19.387L26.862 17.112C27.272 16.7196 27.414 16.1409 27.236 15.6059C27.06 15.0708 26.6 14.6903 26.044 14.613L22.786 14.1414L21.328 11.2163C21.078 10.713 20.57 10.3999 20.004 10.3979Z" fill="black"/>
</g>
</g>
</svg>
