<svg width="35" height="35" viewBox="0 0 35 35" fill="none" xmlns="http://www.w3.org/2000/svg">
<g id="Category">
<path id="Fill-1" opacity="0.4" d="M24.6321 0H30.5576C33.0116 0 35 2.00524 35 4.47994V10.4554C35 12.9301 33.0116 14.9354 30.5576 14.9354H24.6321C22.1782 14.9354 20.1897 12.9301 20.1897 10.4554V4.47994C20.1897 2.00524 22.1782 0 24.6321 0Z" fill="#1DA1F2"/>
<path id="Combined-Shape" d="M10.3679 20.0646C12.8218 20.0646 14.8103 22.0699 14.8103 24.5446V30.5201C14.8103 32.9931 12.8218 35 10.3679 35H4.44242C1.98845 35 0 32.9931 0 30.5201V24.5446C0 22.0699 1.98845 20.0646 4.44242 20.0646H10.3679ZM30.5576 20.0646C33.0116 20.0646 35 22.0699 35 24.5446V30.5201C35 32.9931 33.0116 35 30.5576 35H24.6321C22.1782 35 20.1897 32.9931 20.1897 30.5201V24.5446C20.1897 22.0699 22.1782 20.0646 24.6321 20.0646H30.5576ZM10.3679 0C12.8218 0 14.8103 2.00524 14.8103 4.47994V10.4554C14.8103 12.9301 12.8218 14.9354 10.3679 14.9354H4.44242C1.98845 14.9354 0 12.9301 0 10.4554V4.47994C0 2.00524 1.98845 0 4.44242 0H10.3679Z" fill="#1DA1F2"/>
</g>
</svg>
