<svg width="21" height="21" viewBox="0 0 21 21" fill="none" xmlns="http://www.w3.org/2000/svg">
<g id="Date range" clip-path="url(#clip0_1056_2339)">
<path id="Vector" d="M7.86 9.66675H6.19333V11.3334H7.86V9.66675ZM11.1933 9.66675H9.52667V11.3334H11.1933V9.66675ZM14.5267 9.66675H12.86V11.3334H14.5267V9.66675ZM16.1933 3.83341H15.36V2.16675H13.6933V3.83341H7.02667V2.16675H5.36V3.83341H4.52667C3.60167 3.83341 2.86833 4.58341 2.86833 5.50008L2.86 17.1667C2.86 18.0834 3.60167 18.8334 4.52667 18.8334H16.1933C17.11 18.8334 17.86 18.0834 17.86 17.1667V5.50008C17.86 4.58341 17.11 3.83341 16.1933 3.83341ZM16.1933 17.1667H4.52667V8.00008H16.1933V17.1667Z" fill="black"/>
</g>
<defs>
<clipPath id="clip0_1056_2339">
<rect width="20" height="20" fill="white" transform="translate(0.36 0.5)"/>
</clipPath>
</defs>
</svg>
