<svg width="20" height="24" viewBox="0 0 20 24" fill="none" xmlns="http://www.w3.org/2000/svg">
<g id="Iconly/Bold/Arrow---Left-2">
<g id="Arrow---Left-2">
<path id="Vector" d="M19.2616 14.262C19.1486 14.378 18.7219 14.874 18.3244 15.282C15.9942 17.848 9.91525 22.048 6.73356 23.33C6.25037 23.536 5.02874 23.972 4.37603 24C3.75061 24 3.15441 23.856 2.58549 23.564C1.87628 23.156 1.30736 22.514 0.995617 21.756C0.794935 21.23 0.483196 19.656 0.483196 19.628C0.171457 17.906 0 15.108 0 12.016C0 9.07 0.171457 6.386 0.426693 4.638C0.455919 4.61 0.767656 2.654 1.10862 1.984C1.73405 0.759998 2.95568 0 4.26303 0H4.37603C5.22747 0.0300007 7.01802 0.790001 7.01802 0.818001C10.0283 2.102 15.9669 6.096 18.3536 8.75C18.3536 8.75 19.0258 9.432 19.3181 9.858C19.774 10.47 20 11.228 20 11.986C20 12.832 19.7448 13.62 19.2616 14.262Z" fill="#1DA1F2"/>
</g>
</g>
</svg>
