<svg width="21" height="21" viewBox="0 0 21 21" fill="none" xmlns="http://www.w3.org/2000/svg">
<g id="Date range" clip-path="url(#clip0_1056_2053)">
<path id="Vector" d="M7.66309 9.66663H5.99642V11.3333H7.66309V9.66663ZM10.9964 9.66663H9.32975V11.3333H10.9964V9.66663ZM14.3298 9.66663H12.6631V11.3333H14.3298V9.66663ZM15.9964 3.83329H15.1631V2.16663H13.4964V3.83329H6.82975V2.16663H5.16309V3.83329H4.32975C3.40475 3.83329 2.67142 4.58329 2.67142 5.49996L2.66309 17.1666C2.66309 18.0833 3.40475 18.8333 4.32975 18.8333H15.9964C16.9131 18.8333 17.6631 18.0833 17.6631 17.1666V5.49996C17.6631 4.58329 16.9131 3.83329 15.9964 3.83329ZM15.9964 17.1666H4.32975V7.99996H15.9964V17.1666Z" fill="black"/>
</g>
<defs>
<clipPath id="clip0_1056_2053">
<rect width="20" height="20" fill="white" transform="translate(0.163086 0.5)"/>
</clipPath>
</defs>
</svg>
