<svg width="15" height="15" viewBox="0 0 15 15" fill="none" xmlns="http://www.w3.org/2000/svg">
<g id="Phone" clip-path="url(#clip0_1056_141)">
<path id="Vector" d="M4.1375 6.74375C5.0375 8.5125 6.4875 9.95625 8.25625 10.8625L9.63125 9.4875C9.8 9.31875 10.05 9.2625 10.2688 9.3375C10.9688 9.56875 11.725 9.69375 12.5 9.69375C12.8438 9.69375 13.125 9.975 13.125 10.3188V12.5C13.125 12.8438 12.8438 13.125 12.5 13.125C6.63125 13.125 1.875 8.36875 1.875 2.5C1.875 2.15625 2.15625 1.875 2.5 1.875H4.6875C5.03125 1.875 5.3125 2.15625 5.3125 2.5C5.3125 3.28125 5.4375 4.03125 5.66875 4.73125C5.7375 4.95 5.6875 5.19375 5.5125 5.36875L4.1375 6.74375Z" fill="black"/>
</g>
<defs>
<clipPath id="clip0_1056_141">
<rect width="15" height="15" fill="white"/>
</clipPath>
</defs>
</svg>
